# xmcd
#
# Track frame offsets:
#	150
#	9000
#	19988
#	33827
#	39570
#	62193
#	76395
#	90340
#	103062
#	118991
#
# Disc length: 2349 seconds
#
# Revision: 1
# Processed by: cddbd v1.5.2PL0 Copyright (c) Steve Scherf et al.
# Submitted via: audiograbber 1.83.01
#
DISCID=72092b0a
DTITLE=Diverse - Hiram and Huddie
DYEAR=2009
DGENRE=Blues
TTITLE0=Reverend Peyton's Big Damn Band - Rock Island Line
TTITLE1=William Elliott Whitmore - The Gallis (Gallows) Pole
TTITLE2=C.W. Stoneking - In New Orleans
TTITLE3=Scott H. Biram - Go Down Old Hannah
TTITLE4=Paul James - Bourgeois Blues
TTITLE5=Tom Vanden Avond - Ha Ha, This Way
TTITLE6=Wayne "The Train" Hancock - Goodnight Irene
TTITLE7=Jawbone - Bottle Up and Go
TTITLE8=Soda - Old Riley
TTITLE9=Flathead - Pick a Bail of Cotton
EXTD=
EXTT0=
EXTT1=
EXTT2=
EXTT3=
EXTT4=
EXTT5=
EXTT6=
EXTT7=
EXTT8=
EXTT9=
PLAYORDER=
